<svg xmlns="http://www.w3.org/2000/svg" viewBox="0 0 512 512" width="512" height="512">
  <defs>
    <linearGradient id="grad1" x1="0%" y1="0%" x2="100%" y2="100%">
      <stop offset="0%" style="stop-color:#8b5cf6;stop-opacity:1" />
      <stop offset="100%" style="stop-color:#6d28d9;stop-opacity:1" />
    </linearGradient>
  </defs>
  
  <!-- Background circle -->
  <circle cx="256" cy="256" r="240" fill="url(#grad1)" />
  
  <!-- Brain icon simplified -->
  <g fill="white" stroke="white" stroke-width="2">
    <!-- Left hemisphere -->
    <path d="M180 160 C140 160, 120 180, 120 220 C120 260, 140 300, 180 320 C200 340, 230 350, 256 340" fill="none" stroke-width="8"/>
    
    <!-- Right hemisphere -->
    <path d="M332 160 C372 160, 392 180, 392 220 C392 260, 372 300, 332 320 C312 340, 282 350, 256 340" fill="none" stroke-width="8"/>
    
    <!-- Center connection -->
    <path d="M256 200 L256 340" stroke-width="4"/>
    
    <!-- Neural connections -->
    <circle cx="200" cy="200" r="4" fill="white"/>
    <circle cx="312" cy="200" r="4" fill="white"/>
    <circle cx="180" cy="240" r="3" fill="white"/>
    <circle cx="332" cy="240" r="3" fill="white"/>
    <circle cx="200" cy="280" r="3" fill="white"/>
    <circle cx="312" cy="280" r="3" fill="white"/>
    
    <!-- Connection lines -->
    <line x1="200" y1="200" x2="256" y2="220" stroke-width="2" opacity="0.8"/>
    <line x1="312" y1="200" x2="256" y2="220" stroke-width="2" opacity="0.8"/>
    <line x1="180" y1="240" x2="256" y2="260" stroke-width="2" opacity="0.8"/>
    <line x1="332" y1="240" x2="256" y2="260" stroke-width="2" opacity="0.8"/>
  </g>
  
  <!-- Chart lines at bottom -->
  <g stroke="white" stroke-width="3" fill="none" opacity="0.9">
    <path d="M160 380 L180 370 L200 375 L220 360 L240 365 L260 350 L280 355 L300 345 L320 350 L340 340 L360 345"/>
  </g>
  
  <!-- Small plus sign for health -->
  <g fill="white">
    <rect x="340" y="120" width="20" height="4" rx="2"/>
    <rect x="348" y="112" width="4" height="20" rx="2"/>
  </g>
</svg>